# xmcd
#
# Track frame offsets:
#	150
#	20640
#	40412
#	55367
#	79232
#	105077
#	122282
#	139222
#	157380
#	175300
#
# Disc length: 2531 seconds
#
# Revision: 1
# Processed by: cddbd v1.5.2PL0 Copyright (c) Steve Scherf et al.
# Submitted via: audiograbber 1.83.01
#
DISCID=8409e10a
DTITLE=Lil' Dave and The Howlin Blues Band - It's You
DYEAR=1994
DGENRE=Blues
TTITLE0=Train
TTITLE1=Love Stones Me
TTITLE2=Hey Baby
TTITLE3=Plenty Lovin'
TTITLE4=It's You
TTITLE5=Slippin' Out
TTITLE6=The Cure
TTITLE7=Woman
TTITLE8=Torment
TTITLE9=How Could You
EXTD=
EXTT0=
EXTT1=
EXTT2=
EXTT3=
EXTT4=
EXTT5=
EXTT6=
EXTT7=
EXTT8=
EXTT9=
PLAYORDER=
